<svg width="103" height="103" viewBox="0 0 103 103" fill="none" xmlns="http://www.w3.org/2000/svg">
<path d="M51.5 103C79.9427 103 103 79.9427 103 51.5C103 23.0573 79.9427 0 51.5 0C23.0573 0 0 23.0573 0 51.5C0 79.9427 23.0573 103 51.5 103Z" fill="#FFD600"/>
<path d="M51.5 93C74.4198 93 93 74.4198 93 51.5C93 28.5802 74.4198 10 51.5 10C28.5802 10 10 28.5802 10 51.5C10 74.4198 28.5802 93 51.5 93Z" fill="#FFF100"/>
<path d="M42.5286 52.4501C42.2619 51.5168 41.8619 50.6501 41.3286 49.8501C40.8286 49.0168 40.2119 48.3168 39.4786 47.7501C38.7453 47.1501 37.9119 46.6834 36.9786 46.3501C36.0786 46.0168 35.1119 45.8501 34.0786 45.8501C33.0453 45.8501 32.0619 46.0168 31.1286 46.3501C30.2286 46.6834 29.4119 47.1501 28.6786 47.7501C27.9453 48.3168 27.3119 49.0168 26.7786 49.8501C26.2453 50.6501 25.8619 51.5168 25.6286 52.4501H42.5286ZM34.0786 67.6001C32.2786 67.6001 30.5786 67.2668 28.9786 66.6001C27.4119 65.9001 26.0286 64.9668 24.8286 63.8001C23.6619 62.6001 22.7286 61.2168 22.0286 59.6501C21.3619 58.0834 21.0286 56.4001 21.0286 54.6001C21.0286 52.8001 21.3619 51.1001 22.0286 49.5001C22.7286 47.9001 23.6619 46.5168 24.8286 45.3501C26.0286 44.1834 27.4119 43.2668 28.9786 42.6001C30.5786 41.9001 32.2786 41.5501 34.0786 41.5501C35.8786 41.5501 37.5619 41.9001 39.1286 42.6001C40.7286 43.2668 42.1119 44.1834 43.2786 45.3501C44.4453 46.5168 45.362 47.9001 46.0286 49.5001C46.7286 51.1001 47.0786 52.8001 47.0786 54.6001C47.0786 54.8334 47.0786 55.0834 47.0786 55.3501C47.0786 55.6168 47.0453 56.0668 46.9786 56.7001H25.6286C25.8619 57.6668 26.2453 58.5501 26.7786 59.3501C27.3119 60.1501 27.9453 60.8501 28.6786 61.4501C29.4119 62.0501 30.2286 62.5168 31.1286 62.8501C32.0619 63.1834 33.0453 63.3501 34.0786 63.3501C34.8786 63.3501 35.6786 63.1501 36.4786 62.7501C37.2786 62.3168 38.0453 61.7501 38.7786 61.0501L41.7786 64.0501C40.6786 65.1168 39.4619 65.9834 38.1286 66.6501C36.8286 67.2834 35.4786 67.6001 34.0786 67.6001ZM64.3544 41.4001C66.0544 41.4001 67.6377 41.7001 69.1044 42.3001C70.6044 42.9001 71.9377 43.7168 73.1044 44.7501V30.3501H77.3544V54.4501C77.3544 56.2501 77.0044 57.9501 76.3044 59.5501C75.6377 61.1168 74.7211 62.4834 73.5544 63.6501C72.3877 64.8168 71.0044 65.7501 69.4044 66.4501C67.8377 67.1168 66.1544 67.4501 64.3544 67.4501C62.5544 67.4501 60.8711 67.1168 59.3044 66.4501C57.7377 65.7501 56.3544 64.8168 55.1544 63.6501C53.9877 62.4834 53.0544 61.1168 52.3544 59.5501C51.6877 57.9501 51.3544 56.2501 51.3544 54.4501C51.3544 52.6501 51.6877 50.9668 52.3544 49.4001C53.0544 47.8001 53.9877 46.4168 55.1544 45.2501C56.3544 44.0501 57.7377 43.1168 59.3044 42.4501C60.8711 41.7501 62.5544 41.4001 64.3544 41.4001ZM64.3544 45.7001C63.1544 45.7001 62.0211 45.9334 60.9544 46.4001C59.8877 46.8334 58.9544 47.4501 58.1544 48.2501C57.3877 49.0501 56.7711 49.9834 56.3044 51.0501C55.8377 52.1168 55.6044 53.2501 55.6044 54.4501C55.6044 55.6501 55.8377 56.7834 56.3044 57.8501C56.7711 58.9168 57.3877 59.8501 58.1544 60.6501C58.9544 61.4168 59.8877 62.0334 60.9544 62.5001C62.0211 62.9668 63.1544 63.2001 64.3544 63.2001C65.5544 63.2001 66.6877 62.9668 67.7544 62.5001C68.8211 62.0334 69.7544 61.4168 70.5544 60.6501C71.3544 59.8501 71.9711 58.9168 72.4044 57.8501C72.8711 56.7834 73.1044 55.6501 73.1044 54.4501C73.1044 53.2501 72.8711 52.1168 72.4044 51.0501C71.9711 49.9834 71.3544 49.0501 70.5544 48.2501C69.7544 47.4501 68.8211 46.8334 67.7544 46.4001C66.6877 45.9334 65.5544 45.7001 64.3544 45.7001ZM82.0626 61.0501H86.4126V66.8501H82.0626V61.0501Z" fill="#C4A400"/>
</svg>
