<svg width="510" height="116" viewBox="0 0 510 116" fill="none" xmlns="http://www.w3.org/2000/svg">
<path d="M51.72 53.08C51.08 50.84 50.12 48.76 48.84 46.84C47.64 44.84 46.16 43.16 44.4 41.8C42.64 40.36 40.64 39.24 38.4 38.44C36.24 37.64 33.92 37.24 31.44 37.24C28.96 37.24 26.6 37.64 24.36 38.44C22.2 39.24 20.24 40.36 18.48 41.8C16.72 43.16 15.2 44.84 13.92 46.84C12.64 48.76 11.72 50.84 11.16 53.08H51.72ZM31.44 89.44C27.12 89.44 23.04 88.64 19.2 87.04C15.44 85.36 12.12 83.12 9.24 80.32C6.44 77.44 4.2 74.12 2.52 70.36C0.92 66.6 0.12 62.56 0.12 58.24C0.12 53.92 0.92 49.84 2.52 46C4.2 42.16 6.44 38.84 9.24 36.04C12.12 33.24 15.44 31.04 19.2 29.44C23.04 27.76 27.12 26.92 31.44 26.92C35.76 26.92 39.8 27.76 43.56 29.44C47.4 31.04 50.72 33.24 53.52 36.04C56.32 38.84 58.52 42.16 60.12 46C61.8 49.84 62.64 53.92 62.64 58.24C62.64 58.8 62.64 59.4 62.64 60.04C62.64 60.68 62.56 61.76 62.4 63.28H11.16C11.72 65.6 12.64 67.72 13.92 69.64C15.2 71.56 16.72 73.24 18.48 74.68C20.24 76.12 22.2 77.24 24.36 78.04C26.6 78.84 28.96 79.24 31.44 79.24C33.36 79.24 35.28 78.76 37.2 77.8C39.12 76.76 40.96 75.4 42.72 73.72L49.92 80.92C47.28 83.48 44.36 85.56 41.16 87.16C38.04 88.68 34.8 89.44 31.44 89.44ZM104.102 26.56C108.182 26.56 111.982 27.28 115.502 28.72C119.102 30.16 122.302 32.12 125.102 34.6V0.0399952H135.302V57.88C135.302 62.2 134.462 66.28 132.782 70.12C131.182 73.88 128.982 77.16 126.182 79.96C123.382 82.76 120.062 85 116.222 86.68C112.462 88.28 108.422 89.08 104.102 89.08C99.7819 89.08 95.7419 88.28 91.9819 86.68C88.2219 85 84.9019 82.76 82.0219 79.96C79.2219 77.16 76.9819 73.88 75.3019 70.12C73.7019 66.28 72.9019 62.2 72.9019 57.88C72.9019 53.56 73.7019 49.52 75.3019 45.76C76.9819 41.92 79.2219 38.6 82.0219 35.8C84.9019 32.92 88.2219 30.68 91.9819 29.08C95.7419 27.4 99.7819 26.56 104.102 26.56ZM104.102 36.88C101.222 36.88 98.5019 37.44 95.9419 38.56C93.3819 39.6 91.1419 41.08 89.2219 43C87.3819 44.92 85.9019 47.16 84.7819 49.72C83.6619 52.28 83.1019 55 83.1019 57.88C83.1019 60.76 83.6619 63.48 84.7819 66.04C85.9019 68.6 87.3819 70.84 89.2219 72.76C91.1419 74.6 93.3819 76.08 95.9419 77.2C98.5019 78.32 101.222 78.88 104.102 78.88C106.982 78.88 109.702 78.32 112.262 77.2C114.822 76.08 117.062 74.6 118.982 72.76C120.902 70.84 122.382 68.6 123.422 66.04C124.542 63.48 125.102 60.76 125.102 57.88C125.102 55 124.542 52.28 123.422 49.72C122.382 47.16 120.902 44.92 118.982 43C117.062 41.08 114.822 39.6 112.262 38.56C109.702 37.44 106.982 36.88 104.102 36.88ZM146.602 73.72H157.042V87.64H146.602V73.72ZM226.183 28L200.383 88H191.263L165.463 28H176.623L195.823 73C199.023 65.56 202.223 58.04 205.423 50.44C208.703 42.76 211.903 35.28 215.023 28H226.183ZM279.65 53.08C279.01 50.84 278.05 48.76 276.77 46.84C275.57 44.84 274.09 43.16 272.33 41.8C270.57 40.36 268.57 39.24 266.33 38.44C264.17 37.64 261.85 37.24 259.37 37.24C256.89 37.24 254.53 37.64 252.29 38.44C250.13 39.24 248.17 40.36 246.41 41.8C244.65 43.16 243.13 44.84 241.85 46.84C240.57 48.76 239.65 50.84 239.09 53.08H279.65ZM259.37 89.44C255.05 89.44 250.97 88.64 247.13 87.04C243.37 85.36 240.05 83.12 237.17 80.32C234.37 77.44 232.13 74.12 230.45 70.36C228.85 66.6 228.05 62.56 228.05 58.24C228.05 53.92 228.85 49.84 230.45 46C232.13 42.16 234.37 38.84 237.17 36.04C240.05 33.24 243.37 31.04 247.13 29.44C250.97 27.76 255.05 26.92 259.37 26.92C263.69 26.92 267.73 27.76 271.49 29.44C275.33 31.04 278.65 33.24 281.45 36.04C284.25 38.84 286.45 42.16 288.05 46C289.73 49.84 290.57 53.92 290.57 58.24C290.57 58.8 290.57 59.4 290.57 60.04C290.57 60.68 290.49 61.76 290.33 63.28H239.09C239.65 65.6 240.57 67.72 241.85 69.64C243.13 71.56 244.65 73.24 246.41 74.68C248.17 76.12 250.13 77.24 252.29 78.04C254.53 78.84 256.89 79.24 259.37 79.24C261.29 79.24 263.21 78.76 265.13 77.8C267.05 76.76 268.89 75.4 270.65 73.72L277.85 80.92C275.21 83.48 272.29 85.56 269.09 87.16C265.97 88.68 262.73 89.44 259.37 89.44ZM312.549 88H302.229V58C302.229 53.68 303.109 49.6 304.869 45.76C306.629 41.92 309.029 38.6 312.069 35.8C315.109 33 318.629 30.8 322.629 29.2C326.709 27.52 331.069 26.68 335.709 26.68V37C332.509 37 329.509 37.56 326.709 38.68C323.909 39.72 321.429 41.2 319.269 43.12C317.189 45.04 315.549 47.28 314.349 49.84C313.149 52.4 312.549 55.12 312.549 58V88ZM362.506 62.44C360.266 62.44 358.146 62.04 356.146 61.24C354.226 60.44 352.506 59.36 350.986 58C349.466 56.56 348.226 54.88 347.266 52.96C346.386 51.04 345.906 48.96 345.826 46.72C345.746 46.24 345.706 45.64 345.706 44.92C345.706 44.12 345.746 43.48 345.826 43C345.906 40.84 346.386 38.8 347.266 36.88C348.226 34.96 349.466 33.28 350.986 31.84C352.506 30.4 354.226 29.28 356.146 28.48C358.146 27.68 360.266 27.28 362.506 27.28H385.546V37.6H362.506C360.826 37.6 359.346 38.2 358.066 39.4C356.866 40.52 356.186 41.96 356.026 43.72C355.866 44.52 355.866 45.36 356.026 46.24C356.186 47.92 356.866 49.36 358.066 50.56C359.346 51.68 360.826 52.24 362.506 52.24H370.786C373.026 52.24 375.146 52.68 377.146 53.56C379.146 54.36 380.866 55.48 382.306 56.92C383.826 58.36 385.026 60.04 385.906 61.96C386.866 63.88 387.386 65.96 387.466 68.2V71.56C387.466 73.88 386.986 76.04 386.026 78.04C385.146 79.96 383.946 81.68 382.426 83.2C380.986 84.72 379.226 85.92 377.146 86.8C375.146 87.6 372.986 88 370.666 88H347.026V77.8H370.666C372.266 77.8 373.626 77.28 374.746 76.24C375.946 75.2 376.746 73.96 377.146 72.52V72.04C377.146 71.88 377.146 71.76 377.146 71.68C377.226 71.52 377.266 71.36 377.266 71.2V68.92C377.186 67.08 376.506 65.56 375.226 64.36C374.026 63.08 372.506 62.44 370.666 62.44H362.506ZM398.669 28H408.989V88H398.669V28ZM398.669 0.159994H408.989V14.08H398.669V0.159994ZM419.308 13.6H429.628V28.24H450.628V38.44H429.628V72.16C429.628 73.92 430.228 75.44 431.428 76.72C432.708 77.92 434.268 78.52 436.108 78.52C437.948 78.52 439.468 77.68 440.668 76C441.948 74.32 442.588 72.28 442.588 69.88H452.788C452.788 72.52 452.348 75 451.468 77.32C450.588 79.56 449.388 81.56 447.868 83.32C446.428 85 444.668 86.36 442.588 87.4C440.588 88.36 438.428 88.84 436.108 88.84C433.788 88.84 431.588 88.4 429.508 87.52C427.508 86.64 425.748 85.44 424.228 83.92C422.708 82.4 421.508 80.64 420.628 78.64C419.748 76.64 419.308 74.48 419.308 72.16V13.6ZM485.37 89.08C482.09 89.08 478.97 88.44 476.01 87.16C473.13 85.88 470.61 84.16 468.45 82C466.29 79.84 464.57 77.32 463.29 74.44C462.01 71.48 461.37 68.36 461.37 65.08V27.88H471.69V65.08C471.69 67 472.05 68.8 472.77 70.48C473.49 72.16 474.45 73.64 475.65 74.92C476.93 76.12 478.37 77.08 479.97 77.8C481.65 78.52 483.45 78.88 485.37 78.88C487.29 78.88 489.09 78.52 490.77 77.8C492.45 77.08 493.89 76.12 495.09 74.92C496.37 73.64 497.37 72.16 498.09 70.48C498.81 68.8 499.17 67 499.17 65.08V27.88H509.37V91.96C509.37 95.32 508.69 98.44 507.33 101.32C505.97 104.28 504.09 106.84 501.69 109C499.37 111.16 496.61 112.84 493.41 114.04C490.21 115.32 486.77 115.96 483.09 115.96V105.76C485.33 105.76 487.41 105.4 489.33 104.68C491.33 103.96 493.05 102.96 494.49 101.68C495.93 100.4 497.05 98.92 497.85 97.24C498.73 95.64 499.17 93.88 499.17 91.96V84.76C497.17 86.12 495.01 87.2 492.69 88C490.37 88.72 487.93 89.08 485.37 89.08Z" fill="white"/>
</svg>
