<svg id="Layer_1" data-name="Layer 1" xmlns="http://www.w3.org/2000/svg" xmlns:xlink="http://www.w3.org/1999/xlink" viewBox="0 0 1161.7 399.83"><defs><style>.cls-1{fill:none;}.cls-2{clip-path:url(#clip-path);}.cls-3{fill:url(#linear-gradient);}.cls-4{fill:url(#linear-gradient-2);}.cls-5{fill:url(#linear-gradient-3);}.cls-6{fill:url(#linear-gradient-4);}</style><clipPath id="clip-path"><rect class="cls-1" x="-0.02" width="1161.77" height="399.83"/></clipPath><linearGradient id="linear-gradient" x1="2779.77" y1="221.44" x2="2961.64" y2="759.14" gradientTransform="translate(3858.34 909.37) rotate(-176.78)" gradientUnits="userSpaceOnUse"><stop offset="0" stop-color="#098877" stop-opacity="0"/><stop offset="0.2" stop-color="#098877" stop-opacity="0.02"/><stop offset="0.37" stop-color="#098877" stop-opacity="0.1"/><stop offset="0.52" stop-color="#098877" stop-opacity="0.23"/><stop offset="0.67" stop-color="#098877" stop-opacity="0.41"/><stop offset="0.82" stop-color="#098877" stop-opacity="0.64"/><stop offset="0.95" stop-color="#098877" stop-opacity="0.92"/><stop offset="0.99" stop-color="#098877"/></linearGradient><linearGradient id="linear-gradient-2" x1="914.21" y1="134.53" x2="1161.16" y2="746.3" gradientTransform="translate(-66.17 195.91) rotate(-11.03)" gradientUnits="userSpaceOnUse"><stop offset="0.02" stop-color="#06584c"/><stop offset="0.06" stop-color="#06584c" stop-opacity="0.89"/><stop offset="0.2" stop-color="#06584c" stop-opacity="0.57"/><stop offset="0.36" stop-color="#06584c" stop-opacity="0.32"/><stop offset="0.53" stop-color="#06584c" stop-opacity="0.14"/><stop offset="0.73" stop-color="#06584c" stop-opacity="0.03"/><stop offset="1" stop-color="#06584c" stop-opacity="0"/></linearGradient><linearGradient id="linear-gradient-3" x1="358.51" y1="639.18" x2="57.76" y2="-185.73" gradientUnits="userSpaceOnUse"><stop offset="0.01" stop-color="#098877"/><stop offset="0.05" stop-color="#098877" stop-opacity="0.92"/><stop offset="0.18" stop-color="#098877" stop-opacity="0.64"/><stop offset="0.33" stop-color="#098877" stop-opacity="0.41"/><stop offset="0.48" stop-color="#098877" stop-opacity="0.23"/><stop offset="0.63" stop-color="#098877" stop-opacity="0.1"/><stop offset="0.8" stop-color="#098877" stop-opacity="0.02"/><stop offset="1" stop-color="#098877" stop-opacity="0"/></linearGradient><linearGradient id="linear-gradient-4" x1="110.15" y1="432.45" x2="32.95" y2="-178.53" gradientUnits="userSpaceOnUse"><stop offset="0" stop-color="#06584c"/><stop offset="0.04" stop-color="#06584c" stop-opacity="0.89"/><stop offset="0.19" stop-color="#06584c" stop-opacity="0.57"/><stop offset="0.35" stop-color="#06584c" stop-opacity="0.32"/><stop offset="0.52" stop-color="#06584c" stop-opacity="0.14"/><stop offset="0.72" stop-color="#06584c" stop-opacity="0.03"/><stop offset="1" stop-color="#06584c" stop-opacity="0"/></linearGradient></defs><g class="cls-2"><path class="cls-3" d="M865.65,566.11C927,541.85,935.7,483,988.48,515.91c15.76,9.82,27.35,20.59,42.77,24.76,44,11.92,60.79-51.58,101.42-43.63,25.91,5.07,64.55,18.17,99.1-17.22,17.76-18.2,19.77-40.66,23.14-68,7-57.08,55.1-71.44,74-132.34,16.16-52-7.42-94.67-51.24-105-50.42-11.85-88.3,16.34-145.08,39.87-50,20.73-79.41-17.48-136.14-32-39.15-10-73.89,8.48-99.37,39.66C863.82,262.82,858.67,300,851,344.22c-8.51,48.89-35.2,69.73-56.59,93.1C728.28,509.55,799.46,592.27,865.65,566.11Z"/><path class="cls-4" d="M857.61,431.12c38.37-19.67,71,1.44,77.58-38.65,2-12,1.69-22.3,6.28-31.67,13.13-26.75,51.53-7.6,65.14-31,8.68-14.9,18.91-39.52,51.17-41.22,16.58-.87,28.48,7.82,43.35,17.95,31,21.15,58.82,3.75,96.87,20.71,32.47,14.46,43.27,44.45,29.43,70.39-15.91,29.85-46.08,36.3-82.1,54-31.74,15.61-25.66,46.51-43,80.61-12,23.54-36,32.61-62.3,31.68-34.36-1.23-54.81-14.7-79.86-30-27.67-16.9-49.4-12.78-70.09-12.36C826.16,522.93,816.24,452.33,857.61,431.12Z"/><path class="cls-5" d="M416.06-20.76c-68.85-2-101.4,50.82-138.45-2.47-11.06-15.91-17.74-31-30.81-41.37-37.3-29.56-79.53,24.41-115.21,0-22.75-15.53-54.4-44-102.11-24.31C5-78.73-6.22-58-20.72-33.2-51,18.62-103,12.59-146.23,63.17c-36.89,43.16-31.88,93.83,5.9,121.75C-96.88,217-48.95,205.63,15.19,206.46c56.49.73,68.93,49.48,117.34,86.76,33.41,25.74,74.34,22.31,111.61,2.91,48.71-25.36,69-58.83,94.58-98.1,28.3-43.37,62.47-52.35,92.61-65.95C524.46,90.06,490.29-18.57,416.06-20.76Z"/><path class="cls-6" d="M261.05,32.34c-31.56-17.69-62.44-6.09-105.11-1.26C118.35,35.33,106,4,70.71-16.71,46.36-31,19.46-25.29-3.67-9.28c-30.23,20.93-40.87,44.87-54.6,73.1-15.16,31.19-37.11,40-56,51.58-30.47,18.66-36.34,46.46-28,68.09.62.49,1.24,1,1.88,1.43,24.15,17.86,49.7,22.26,78.64,22.79,25.61-11,40.74-26.28,62.57-2,.24.26.46.52.69.78,4.46,0,9,0,13.62,0,22.09.29,37.44,7.92,50.85,19.33,11.69-5.74,23.25-11.1,35.31-4.92,16.41,8.41,39.83,24.67,69.86,7.58,15.44-8.78,21.13-23.47,28.68-41.18,15.76-37,50.8-37.32,75.29-74.55C296.07,81,288.49,47.72,261.05,32.34Z"/></g></svg>