<svg id="Layer_1" data-name="Layer 1" xmlns="http://www.w3.org/2000/svg" xmlns:xlink="http://www.w3.org/1999/xlink" viewBox="0 0 1080 1319.49"><defs><style>.cls-1{fill:none;}.cls-2{clip-path:url(#clip-path);}.cls-3{fill:url(#linear-gradient);}.cls-4{fill:url(#linear-gradient-2);}.cls-5{fill:url(#linear-gradient-3);}.cls-6{fill:url(#linear-gradient-4);}.cls-7{fill:url(#linear-gradient-5);}.cls-8{opacity:0.4;isolation:isolate;fill:url(#linear-gradient-6);}</style><clipPath id="clip-path"><rect class="cls-1" y="0.04" width="1080" height="1319.11"/></clipPath><linearGradient id="linear-gradient" x1="359.27" y1="328.94" x2="780.17" y2="-330.72" gradientTransform="matrix(1, 0, 0, -1, 0, 1319.49)" gradientUnits="userSpaceOnUse"><stop offset="0" stop-color="#098877" stop-opacity="0"/><stop offset="0.18" stop-color="#098574" stop-opacity="0.07"/><stop offset="0.43" stop-color="#087b6c" stop-opacity="0.26"/><stop offset="0.71" stop-color="#076c5e" stop-opacity="0.58"/><stop offset="1" stop-color="#06584c"/></linearGradient><linearGradient id="linear-gradient-2" x1="631.89" y1="299.6" x2="781.23" y2="-104.19" gradientTransform="matrix(1, 0.1, 0.1, -1, -73.02, 1308.61)" gradientUnits="userSpaceOnUse"><stop offset="0.07" stop-color="#06584c"/><stop offset="0.79" stop-color="#098877" stop-opacity="0"/></linearGradient><linearGradient id="linear-gradient-3" x1="525.98" y1="229.96" x2="674.31" y2="-115.98" gradientTransform="matrix(1, 0, 0, -1, 0, 1319.49)" gradientUnits="userSpaceOnUse"><stop offset="0" stop-color="#098877"/><stop offset="1" stop-color="#06584c" stop-opacity="0"/></linearGradient><linearGradient id="linear-gradient-4" x1="-5390.75" y1="1280.88" x2="-5282.21" y2="995.15" gradientTransform="matrix(-0.99, -0.12, -0.12, 0.99, -4690.47, -1579.01)" xlink:href="#linear-gradient-3"/><linearGradient id="linear-gradient-5" x1="-5452.69" y1="1226.03" x2="-5288.03" y2="811.2" gradientTransform="matrix(-0.99, -0.12, -0.12, 0.99, -4690.47, -1579.01)" gradientUnits="userSpaceOnUse"><stop offset="0" stop-color="#098877"/><stop offset="1" stop-color="#065c4f" stop-opacity="0"/></linearGradient><linearGradient id="linear-gradient-6" x1="447.01" y1="1122.09" x2="406.83" y2="1291.43" gradientTransform="matrix(0.99, 0.12, 0.12, -0.99, -152.93, 1248.95)" gradientUnits="userSpaceOnUse"><stop offset="0" stop-color="#fff"/><stop offset="1" stop-color="#fff" stop-opacity="0"/></linearGradient></defs><g class="cls-2"><g id="Background"><path class="cls-3" d="M1013.15,972.3a317,317,0,0,0-179.56,83.16c-40.19,37.44-71.77,85.44-118.67,113.6-109.78,65.92-236-1.34-352.19,3-310.44,11.47-298.21,200.43-484.81,220.61-114.25,12.35,1194.24,155.59,1194.24,155.59s9.17-36.3,22.75-89.89V973.53A328.52,328.52,0,0,0,1013.15,972.3Z"/><path class="cls-4" d="M1099.83,1054.23c-37.36-11-79.63-10.47-117.28-.81-57.52,14.79-106.25,47.7-151.2,82.19s-88.05,71.72-139.87,97.88c-62,31.3-135.32,45.39-207.56,39.77-45.45-3.56-90.58-14.56-135.9-12.73-71.65,2.77-139.31,39.94-173.2,95.12l-9.33,97.24,887.58,89.1Z"/><path class="cls-5" d="M952.23,1155.65C906.42,1188,836.48,1193.94,775.3,1197s-125.6,4.42-178.21,29.36c-31.26,14.86-58.39,38.19-86.58,57.91-64.68,45.25-142.88,37.25-217.22,36.57-60.46-.55-116.8,12.84-159.17,59.53-28,30.84-48.71,69.6-61.4,109.54-.75,2.41-1.52,4.81-2.17,7.34H1098V953.84C1013.24,952,1027.59,1102.44,952.23,1155.65Z"/><path class="cls-6" d="M-42.38,321.38c38.1,12.4,81.52,13,120.54,4.1,59.48-13.6,110.51-46,157.65-80.27s92.43-71.3,146.37-96.71c64.61-30.43,140.42-42.81,214.45-35.08,46.61,4.88,92.71,17.52,139.42,17,73.73-.86,144.3-37.16,180.61-92.94l12.19-99.67L18.8-178.64Z"/><path class="cls-7" d="M49.1,276.25c28.28-31.82,51.33-68.42,91.9-90.18,50.72-27.11,118.33-25.5,181.1-20.63s128.62,11.87,185.52-6.77c33.75-11.08,64.34-31.35,95.55-47.79,89.18-47,180.37-10,272.76-4.45,137.4,8.23,202.76-155.36,202.76-155.36L30.3-183l-63,514.72C.58,322.22,28.23,299.75,49.1,276.25Z"/><path class="cls-8" d="M22.54-209.18-21.27,148.87a3,3,0,0,0,2.53,1C11.06,147,39.91,123.39,60,94.46c14-20.17,46.6-86.4,122.94-71.8,30.84,5.91,158.22,65.26,187.44,74.25C459.23,124.22,537.43,113.13,605.41,62,656.59,23.56,705.51-16,756.35-54.4c26.58-20.08,56.38-38.17,88-49.7Z"/></g></g></svg>