<svg width="510" height="116" viewBox="0 0 510 116" fill="none" xmlns="http://www.w3.org/2000/svg">
<path d="M52.1848 53.08C51.5448 50.84 50.5848 48.76 49.3048 46.84C48.1048 44.84 46.6248 43.16 44.8648 41.8C43.1048 40.36 41.1048 39.24 38.8648 38.44C36.7048 37.64 34.3848 37.24 31.9048 37.24C29.4248 37.24 27.0648 37.64 24.8248 38.44C22.6648 39.24 20.7048 40.36 18.9448 41.8C17.1848 43.16 15.6648 44.84 14.3848 46.84C13.1048 48.76 12.1848 50.84 11.6248 53.08H52.1848ZM31.9048 89.44C27.5848 89.44 23.5048 88.64 19.6648 87.04C15.9048 85.36 12.5848 83.12 9.70483 80.32C6.90483 77.44 4.66483 74.12 2.98483 70.36C1.38483 66.6 0.584839 62.56 0.584839 58.24C0.584839 53.92 1.38483 49.84 2.98483 46C4.66483 42.16 6.90483 38.84 9.70483 36.04C12.5848 33.24 15.9048 31.04 19.6648 29.44C23.5048 27.76 27.5848 26.92 31.9048 26.92C36.2248 26.92 40.2648 27.76 44.0248 29.44C47.8648 31.04 51.1848 33.24 53.9848 36.04C56.7848 38.84 58.9848 42.16 60.5848 46C62.2648 49.84 63.1048 53.92 63.1048 58.24C63.1048 58.8 63.1048 59.4 63.1048 60.04C63.1048 60.68 63.0248 61.76 62.8648 63.28H11.6248C12.1848 65.6 13.1048 67.72 14.3848 69.64C15.6648 71.56 17.1848 73.24 18.9448 74.68C20.7048 76.12 22.6648 77.24 24.8248 78.04C27.0648 78.84 29.4248 79.24 31.9048 79.24C33.8248 79.24 35.7448 78.76 37.6648 77.8C39.5848 76.76 41.4248 75.4 43.1848 73.72L50.3848 80.92C47.7448 83.48 44.8248 85.56 41.6248 87.16C38.5048 88.68 35.2648 89.44 31.9048 89.44ZM104.567 26.56C108.647 26.56 112.447 27.28 115.967 28.72C119.567 30.16 122.767 32.12 125.567 34.6V0.0400391H135.767V57.88C135.767 62.2 134.927 66.28 133.247 70.12C131.647 73.88 129.447 77.16 126.647 79.96C123.847 82.76 120.527 85 116.687 86.68C112.927 88.28 108.887 89.08 104.567 89.08C100.247 89.08 96.2067 88.28 92.4467 86.68C88.6867 85 85.3667 82.76 82.4867 79.96C79.6867 77.16 77.4467 73.88 75.7667 70.12C74.1667 66.28 73.3667 62.2 73.3667 57.88C73.3667 53.56 74.1667 49.52 75.7667 45.76C77.4467 41.92 79.6867 38.6 82.4867 35.8C85.3667 32.92 88.6867 30.68 92.4467 29.08C96.2067 27.4 100.247 26.56 104.567 26.56ZM104.567 36.88C101.687 36.88 98.9667 37.44 96.4067 38.56C93.8467 39.6 91.6067 41.08 89.6867 43C87.8467 44.92 86.3667 47.16 85.2467 49.72C84.1267 52.28 83.5667 55 83.5667 57.88C83.5667 60.76 84.1267 63.48 85.2467 66.04C86.3667 68.6 87.8467 70.84 89.6867 72.76C91.6067 74.6 93.8467 76.08 96.4067 77.2C98.9667 78.32 101.687 78.88 104.567 78.88C107.447 78.88 110.167 78.32 112.727 77.2C115.287 76.08 117.527 74.6 119.447 72.76C121.367 70.84 122.847 68.6 123.887 66.04C125.007 63.48 125.567 60.76 125.567 57.88C125.567 55 125.007 52.28 123.887 49.72C122.847 47.16 121.367 44.92 119.447 43C117.527 41.08 115.287 39.6 112.727 38.56C110.167 37.44 107.447 36.88 104.567 36.88ZM147.066 73.72H157.506V87.64H147.066V73.72ZM226.648 28L200.848 88H191.728L165.928 28H177.088L196.288 73C199.488 65.56 202.688 58.04 205.888 50.44C209.168 42.76 212.368 35.28 215.488 28H226.648ZM280.115 53.08C279.475 50.84 278.515 48.76 277.235 46.84C276.035 44.84 274.555 43.16 272.795 41.8C271.035 40.36 269.035 39.24 266.795 38.44C264.635 37.64 262.315 37.24 259.835 37.24C257.355 37.24 254.995 37.64 252.755 38.44C250.595 39.24 248.635 40.36 246.875 41.8C245.115 43.16 243.595 44.84 242.315 46.84C241.035 48.76 240.115 50.84 239.555 53.08H280.115ZM259.835 89.44C255.515 89.44 251.435 88.64 247.595 87.04C243.835 85.36 240.515 83.12 237.635 80.32C234.835 77.44 232.595 74.12 230.915 70.36C229.315 66.6 228.515 62.56 228.515 58.24C228.515 53.92 229.315 49.84 230.915 46C232.595 42.16 234.835 38.84 237.635 36.04C240.515 33.24 243.835 31.04 247.595 29.44C251.435 27.76 255.515 26.92 259.835 26.92C264.155 26.92 268.195 27.76 271.955 29.44C275.795 31.04 279.115 33.24 281.915 36.04C284.715 38.84 286.915 42.16 288.515 46C290.195 49.84 291.035 53.92 291.035 58.24C291.035 58.8 291.035 59.4 291.035 60.04C291.035 60.68 290.955 61.76 290.795 63.28H239.555C240.115 65.6 241.035 67.72 242.315 69.64C243.595 71.56 245.115 73.24 246.875 74.68C248.635 76.12 250.595 77.24 252.755 78.04C254.995 78.84 257.355 79.24 259.835 79.24C261.755 79.24 263.675 78.76 265.595 77.8C267.515 76.76 269.355 75.4 271.115 73.72L278.315 80.92C275.675 83.48 272.755 85.56 269.555 87.16C266.435 88.68 263.195 89.44 259.835 89.44ZM313.014 88H302.694V58C302.694 53.68 303.574 49.6 305.334 45.76C307.094 41.92 309.494 38.6 312.534 35.8C315.574 33 319.094 30.8 323.094 29.2C327.174 27.52 331.534 26.68 336.174 26.68V37C332.974 37 329.974 37.56 327.174 38.68C324.374 39.72 321.894 41.2 319.734 43.12C317.654 45.04 316.014 47.28 314.814 49.84C313.614 52.4 313.014 55.12 313.014 58V88ZM362.971 62.44C360.731 62.44 358.611 62.04 356.611 61.24C354.691 60.44 352.971 59.36 351.451 58C349.931 56.56 348.691 54.88 347.731 52.96C346.851 51.04 346.371 48.96 346.291 46.72C346.211 46.24 346.171 45.64 346.171 44.92C346.171 44.12 346.211 43.48 346.291 43C346.371 40.84 346.851 38.8 347.731 36.88C348.691 34.96 349.931 33.28 351.451 31.84C352.971 30.4 354.691 29.28 356.611 28.48C358.611 27.68 360.731 27.28 362.971 27.28H386.011V37.6H362.971C361.291 37.6 359.811 38.2 358.531 39.4C357.331 40.52 356.651 41.96 356.491 43.72C356.331 44.52 356.331 45.36 356.491 46.24C356.651 47.92 357.331 49.36 358.531 50.56C359.811 51.68 361.291 52.24 362.971 52.24H371.251C373.491 52.24 375.611 52.68 377.611 53.56C379.611 54.36 381.331 55.48 382.771 56.92C384.291 58.36 385.491 60.04 386.371 61.96C387.331 63.88 387.851 65.96 387.931 68.2V71.56C387.931 73.88 387.451 76.04 386.491 78.04C385.611 79.96 384.411 81.68 382.891 83.2C381.451 84.72 379.691 85.92 377.611 86.8C375.611 87.6 373.451 88 371.131 88H347.491V77.8H371.131C372.731 77.8 374.091 77.28 375.211 76.24C376.411 75.2 377.211 73.96 377.611 72.52V72.04C377.611 71.88 377.611 71.76 377.611 71.68C377.691 71.52 377.731 71.36 377.731 71.2V68.92C377.651 67.08 376.971 65.56 375.691 64.36C374.491 63.08 372.971 62.44 371.131 62.44H362.971ZM399.134 28H409.454V88H399.134V28ZM399.134 0.160038H409.454V14.08H399.134V0.160038ZM419.773 13.6H430.093V28.24H451.093V38.44H430.093V72.16C430.093 73.92 430.693 75.44 431.893 76.72C433.173 77.92 434.733 78.52 436.573 78.52C438.413 78.52 439.933 77.68 441.133 76C442.413 74.32 443.053 72.28 443.053 69.88H453.253C453.253 72.52 452.813 75 451.933 77.32C451.053 79.56 449.853 81.56 448.333 83.32C446.893 85 445.133 86.36 443.053 87.4C441.053 88.36 438.893 88.84 436.573 88.84C434.253 88.84 432.053 88.4 429.973 87.52C427.973 86.64 426.213 85.44 424.693 83.92C423.173 82.4 421.973 80.64 421.093 78.64C420.213 76.64 419.773 74.48 419.773 72.16V13.6ZM485.835 89.08C482.555 89.08 479.435 88.44 476.475 87.16C473.595 85.88 471.075 84.16 468.915 82C466.755 79.84 465.035 77.32 463.755 74.44C462.475 71.48 461.835 68.36 461.835 65.08V27.88H472.155V65.08C472.155 67 472.515 68.8 473.235 70.48C473.955 72.16 474.915 73.64 476.115 74.92C477.395 76.12 478.835 77.08 480.435 77.8C482.115 78.52 483.915 78.88 485.835 78.88C487.755 78.88 489.555 78.52 491.235 77.8C492.915 77.08 494.355 76.12 495.555 74.92C496.835 73.64 497.835 72.16 498.555 70.48C499.275 68.8 499.635 67 499.635 65.08V27.88H509.835V91.96C509.835 95.32 509.155 98.44 507.795 101.32C506.435 104.28 504.555 106.84 502.155 109C499.835 111.16 497.075 112.84 493.875 114.04C490.675 115.32 487.235 115.96 483.555 115.96V105.76C485.795 105.76 487.875 105.4 489.795 104.68C491.795 103.96 493.515 102.96 494.955 101.68C496.395 100.4 497.515 98.92 498.315 97.24C499.195 95.64 499.635 93.88 499.635 91.96V84.76C497.635 86.12 495.475 87.2 493.155 88C490.835 88.72 488.395 89.08 485.835 89.08Z" fill="#1A1A1A"/>
</svg>
