<svg width="175" height="53" viewBox="0 0 175 53" fill="none" xmlns="http://www.w3.org/2000/svg">
<g clip-path="url(#clip0)">
<g filter="url(#filter0_d)">
<path d="M19.24 27.36C19.0267 26.6133 18.7067 25.92 18.28 25.28C17.88 24.6133 17.3867 24.0533 16.8 23.6C16.2133 23.12 15.5467 22.7467 14.8 22.48C14.08 22.2133 13.3067 22.08 12.48 22.08C11.6533 22.08 10.8667 22.2133 10.12 22.48C9.4 22.7467 8.74667 23.12 8.16 23.6C7.57333 24.0533 7.06667 24.6133 6.64 25.28C6.21333 25.92 5.90667 26.6133 5.72 27.36H19.24ZM12.48 39.48C11.04 39.48 9.68 39.2133 8.4 38.68C7.14667 38.12 6.04 37.3733 5.08 36.44C4.14667 35.48 3.4 34.3733 2.84 33.12C2.30667 31.8667 2.04 30.52 2.04 29.08C2.04 27.64 2.30667 26.28 2.84 25C3.4 23.72 4.14667 22.6133 5.08 21.68C6.04 20.7467 7.14667 20.0133 8.4 19.48C9.68 18.92 11.04 18.64 12.48 18.64C13.92 18.64 15.2667 18.92 16.52 19.48C17.8 20.0133 18.9067 20.7467 19.84 21.68C20.7733 22.6133 21.5067 23.72 22.04 25C22.6 26.28 22.88 27.64 22.88 29.08C22.88 29.2667 22.88 29.4667 22.88 29.68C22.88 29.8933 22.8533 30.2533 22.8 30.76H5.72C5.90667 31.5333 6.21333 32.24 6.64 32.88C7.06667 33.52 7.57333 34.08 8.16 34.56C8.74667 35.04 9.4 35.4133 10.12 35.68C10.8667 35.9467 11.6533 36.08 12.48 36.08C13.12 36.08 13.76 35.92 14.4 35.6C15.04 35.2533 15.6533 34.8 16.24 34.24L18.64 36.64C17.76 37.4933 16.7867 38.1867 15.72 38.72C14.68 39.2267 13.6 39.48 12.48 39.48ZM36.7006 18.52C38.0606 18.52 39.3273 18.76 40.5006 19.24C41.7006 19.72 42.7673 20.3733 43.7006 21.2V9.68H47.1006V28.96C47.1006 30.4 46.8206 31.76 46.2606 33.04C45.7273 34.2933 44.994 35.3867 44.0606 36.32C43.1273 37.2533 42.0206 38 40.7406 38.56C39.4873 39.0933 38.1406 39.36 36.7006 39.36C35.2606 39.36 33.914 39.0933 32.6606 38.56C31.4073 38 30.3006 37.2533 29.3406 36.32C28.4073 35.3867 27.6606 34.2933 27.1006 33.04C26.5673 31.76 26.3006 30.4 26.3006 28.96C26.3006 27.52 26.5673 26.1733 27.1006 24.92C27.6606 23.64 28.4073 22.5333 29.3406 21.6C30.3006 20.64 31.4073 19.8933 32.6606 19.36C33.914 18.8 35.2606 18.52 36.7006 18.52ZM36.7006 21.96C35.7406 21.96 34.834 22.1467 33.9806 22.52C33.1273 22.8667 32.3806 23.36 31.7406 24C31.1273 24.64 30.634 25.3867 30.2606 26.24C29.8873 27.0933 29.7006 28 29.7006 28.96C29.7006 29.92 29.8873 30.8267 30.2606 31.68C30.634 32.5333 31.1273 33.28 31.7406 33.92C32.3806 34.5333 33.1273 35.0267 33.9806 35.4C34.834 35.7733 35.7406 35.96 36.7006 35.96C37.6606 35.96 38.5673 35.7733 39.4206 35.4C40.274 35.0267 41.0206 34.5333 41.6606 33.92C42.3006 33.28 42.794 32.5333 43.1406 31.68C43.514 30.8267 43.7006 29.92 43.7006 28.96C43.7006 28 43.514 27.0933 43.1406 26.24C42.794 25.3867 42.3006 24.64 41.6606 24C41.0206 23.36 40.274 22.8667 39.4206 22.52C38.5673 22.1467 37.6606 21.96 36.7006 21.96ZM50.8672 34.24H54.3472V38.88H50.8672V34.24Z" fill="white"/>
<path d="M77.3944 19L68.7944 39H65.7544L57.1544 19H60.8744L67.2744 34C68.341 31.52 69.4077 29.0133 70.4744 26.48C71.5677 23.92 72.6344 21.4267 73.6744 19H77.3944ZM95.2166 27.36C95.0032 26.6133 94.6832 25.92 94.2566 25.28C93.8566 24.6133 93.3632 24.0533 92.7766 23.6C92.1899 23.12 91.5232 22.7467 90.7766 22.48C90.0566 22.2133 89.2832 22.08 88.4566 22.08C87.6299 22.08 86.8432 22.2133 86.0966 22.48C85.3766 22.7467 84.7232 23.12 84.1366 23.6C83.5499 24.0533 83.0432 24.6133 82.6166 25.28C82.1899 25.92 81.8832 26.6133 81.6966 27.36H95.2166ZM88.4566 39.48C87.0166 39.48 85.6566 39.2133 84.3766 38.68C83.1232 38.12 82.0166 37.3733 81.0566 36.44C80.1232 35.48 79.3766 34.3733 78.8166 33.12C78.2832 31.8667 78.0166 30.52 78.0166 29.08C78.0166 27.64 78.2832 26.28 78.8166 25C79.3766 23.72 80.1232 22.6133 81.0566 21.68C82.0166 20.7467 83.1232 20.0133 84.3766 19.48C85.6566 18.92 87.0166 18.64 88.4566 18.64C89.8966 18.64 91.2432 18.92 92.4966 19.48C93.7766 20.0133 94.8832 20.7467 95.8166 21.68C96.7499 22.6133 97.4832 23.72 98.0166 25C98.5766 26.28 98.8566 27.64 98.8566 29.08C98.8566 29.2667 98.8566 29.4667 98.8566 29.68C98.8566 29.8933 98.8299 30.2533 98.7766 30.76H81.6966C81.8832 31.5333 82.1899 32.24 82.6166 32.88C83.0432 33.52 83.5499 34.08 84.1366 34.56C84.7232 35.04 85.3766 35.4133 86.0966 35.68C86.8432 35.9467 87.6299 36.08 88.4566 36.08C89.0966 36.08 89.7366 35.92 90.3766 35.6C91.0166 35.2533 91.6299 34.8 92.2166 34.24L94.6166 36.64C93.7366 37.4933 92.7632 38.1867 91.6966 38.72C90.6566 39.2267 89.5766 39.48 88.4566 39.48ZM106.183 39H102.743V29C102.743 27.56 103.036 26.2 103.623 24.92C104.21 23.64 105.01 22.5333 106.023 21.6C107.036 20.6667 108.21 19.9333 109.543 19.4C110.903 18.84 112.356 18.56 113.903 18.56V22C112.836 22 111.836 22.1867 110.903 22.56C109.97 22.9067 109.143 23.4 108.423 24.04C107.73 24.68 107.183 25.4267 106.783 26.28C106.383 27.1333 106.183 28.04 106.183 29V39ZM122.835 30.48C122.089 30.48 121.382 30.3467 120.715 30.08C120.075 29.8133 119.502 29.4533 118.995 29C118.489 28.52 118.075 27.96 117.755 27.32C117.462 26.68 117.302 25.9867 117.275 25.24C117.249 25.08 117.235 24.88 117.235 24.64C117.235 24.3733 117.249 24.16 117.275 24C117.302 23.28 117.462 22.6 117.755 21.96C118.075 21.32 118.489 20.76 118.995 20.28C119.502 19.8 120.075 19.4267 120.715 19.16C121.382 18.8933 122.089 18.76 122.835 18.76H130.515V22.2H122.835C122.275 22.2 121.782 22.4 121.355 22.8C120.955 23.1733 120.729 23.6533 120.675 24.24C120.622 24.5067 120.622 24.7867 120.675 25.08C120.729 25.64 120.955 26.12 121.355 26.52C121.782 26.8933 122.275 27.08 122.835 27.08H125.595C126.342 27.08 127.049 27.2267 127.715 27.52C128.382 27.7867 128.955 28.16 129.435 28.64C129.942 29.12 130.342 29.68 130.635 30.32C130.955 30.96 131.129 31.6533 131.155 32.4V33.52C131.155 34.2933 130.995 35.0133 130.675 35.68C130.382 36.32 129.982 36.8933 129.475 37.4C128.995 37.9067 128.409 38.3067 127.715 38.6C127.049 38.8667 126.329 39 125.555 39H117.675V35.6H125.555C126.089 35.6 126.542 35.4267 126.915 35.08C127.315 34.7333 127.582 34.32 127.715 33.84V33.68C127.715 33.6267 127.715 33.5867 127.715 33.56C127.742 33.5067 127.755 33.4533 127.755 33.4V32.64C127.729 32.0267 127.502 31.52 127.075 31.12C126.675 30.6933 126.169 30.48 125.555 30.48H122.835ZM134.89 19H138.33V39H134.89V19ZM134.89 9.72H138.33V14.36H134.89V9.72ZM141.769 14.2H145.209V19.08H152.209V22.48H145.209V33.72C145.209 34.3067 145.409 34.8133 145.809 35.24C146.236 35.64 146.756 35.84 147.369 35.84C147.983 35.84 148.489 35.56 148.889 35C149.316 34.44 149.529 33.76 149.529 32.96H152.929C152.929 33.84 152.783 34.6667 152.489 35.44C152.196 36.1867 151.796 36.8533 151.289 37.44C150.809 38 150.223 38.4533 149.529 38.8C148.863 39.12 148.143 39.28 147.369 39.28C146.596 39.28 145.863 39.1333 145.169 38.84C144.503 38.5467 143.916 38.1467 143.409 37.64C142.903 37.1333 142.503 36.5467 142.209 35.88C141.916 35.2133 141.769 34.4933 141.769 33.72V14.2ZM163.79 39.36C162.697 39.36 161.657 39.1467 160.67 38.72C159.71 38.2933 158.87 37.72 158.15 37C157.43 36.28 156.857 35.44 156.43 34.48C156.003 33.4933 155.79 32.4533 155.79 31.36V18.96H159.23V31.36C159.23 32 159.35 32.6 159.59 33.16C159.83 33.72 160.15 34.2133 160.55 34.64C160.977 35.04 161.457 35.36 161.99 35.6C162.55 35.84 163.15 35.96 163.79 35.96C164.43 35.96 165.03 35.84 165.59 35.6C166.15 35.36 166.63 35.04 167.03 34.64C167.457 34.2133 167.79 33.72 168.03 33.16C168.27 32.6 168.39 32 168.39 31.36V18.96H171.79V40.32C171.79 41.44 171.563 42.48 171.11 43.44C170.657 44.4267 170.03 45.28 169.23 46C168.457 46.72 167.537 47.28 166.47 47.68C165.403 48.1067 164.257 48.32 163.03 48.32V44.92C163.777 44.92 164.47 44.8 165.11 44.56C165.777 44.32 166.35 43.9867 166.83 43.56C167.31 43.1333 167.683 42.64 167.95 42.08C168.243 41.5467 168.39 40.96 168.39 40.32V37.92C167.723 38.3733 167.003 38.7333 166.23 39C165.457 39.24 164.643 39.36 163.79 39.36Z" fill="#033F37"/>
</g>
</g>
<defs>
<filter id="filter0_d" x="-1.96001" y="9.67999" width="177.75" height="46.64" filterUnits="userSpaceOnUse" color-interpolation-filters="sRGB">
<feFlood flood-opacity="0" result="BackgroundImageFix"/>
<feColorMatrix in="SourceAlpha" type="matrix" values="0 0 0 0 0 0 0 0 0 0 0 0 0 0 0 0 0 0 127 0" result="hardAlpha"/>
<feOffset dy="4"/>
<feGaussianBlur stdDeviation="2"/>
<feComposite in2="hardAlpha" operator="out"/>
<feColorMatrix type="matrix" values="0 0 0 0 0 0 0 0 0 0 0 0 0 0 0 0 0 0 0.25 0"/>
<feBlend mode="normal" in2="BackgroundImageFix" result="effect1_dropShadow"/>
<feBlend mode="normal" in="SourceGraphic" in2="effect1_dropShadow" result="shape"/>
</filter>
<clipPath id="clip0">
<rect width="175" height="53" fill="white"/>
</clipPath>
</defs>
</svg>
